<?xml version="1.0" standalone="no"?><!-- Generator: Gravit.io --><svg xmlns="http://www.w3.org/2000/svg" xmlns:xlink="http://www.w3.org/1999/xlink" style="isolation:isolate" viewBox="0 0 24 24" width="24" height="24"><defs><clipPath id="_clipPath_CRraF2lMdiYIEdovAMdvjP1HE9l3sGHk"><rect width="24" height="24"/></clipPath></defs><g clip-path="url(#_clipPath_CRraF2lMdiYIEdovAMdvjP1HE9l3sGHk)"><path d=" M 0 0 L 24 0 L 24 24 L 0 24 L 0 0 Z " fill="none"/><path d=" M 19.35 10.04 C 18.67 6.59 15.64 4 12 4 C 9.11 4 6.6 5.64 5.35 8.04 C 2.34 8.36 0 10.91 0 14 C 0 17.31 2.69 20 6 20 L 19 20 C 21.76 20 24 17.76 24 15 C 24 12.36 21.95 10.22 19.35 10.04 Z  M 17 13 L 12 18 L 7 13 L 10 13 L 10 9 L 14 9 L 14 13 L 17 13 L 17 13 Z " fill="rgb(0,150,136)"/></g></svg>