<?xml version="1.0" standalone="no"?><!-- Generator: Gravit.io --><svg xmlns="http://www.w3.org/2000/svg" xmlns:xlink="http://www.w3.org/1999/xlink" style="isolation:isolate" viewBox="0 0 242 241.999" width="242" height="241.999"><defs><clipPath id="_clipPath_ERpCbvsTzahmB4uPtA0qsnR1Mli5XD7n"><rect width="242" height="241.999"/></clipPath></defs><g clip-path="url(#_clipPath_ERpCbvsTzahmB4uPtA0qsnR1Mli5XD7n)"><g><path d=" M 29.612 195.111 C 22.227 195.602 16.319 192.486 10.905 188.054 C 9.919 187.234 9.265 186.249 9.099 185.1 C 8.608 181.491 8.443 177.718 6.311 174.435 C 5.654 173.45 6.311 172.301 6.474 171.153 C 7.951 165.082 9.099 158.846 10.577 152.775 C 13.202 142.601 15.827 132.428 18.619 122.255 C 20.421 116.018 22.556 109.619 24.689 103.385 L 33.548 77.95 C 34.533 75.159 34.533 75.159 32.07 73.191 C 31.251 72.533 30.268 71.879 30.268 70.894 C 30.431 68.597 29.446 66.954 28.297 64.986 C 27.148 63.018 28.462 61.049 30.759 61.049 C 31.415 61.049 31.907 61.212 32.564 61.378 C 34.041 61.87 35.518 61.212 37.158 60.884 C 39.292 60.555 40.111 59.407 40.274 57.439 L 40.274 55.634 C 40.768 51.531 41.422 50.711 45.524 50.383 C 49.464 50.054 53.401 49.727 56.52 53.009 C 57.997 54.486 59.965 54.486 61.934 53.829 C 67.348 52.355 72.928 50.877 78.344 49.563 C 80.969 48.907 83.758 48.415 86.383 47.758 C 92.948 46.118 99.51 47.104 106.075 47.429 C 108.043 47.595 97.923 48.743 97.761 50.711 C 97.596 52.845 108.044 54.814 106.075 56.127 C 105.909 56.291 105.746 56.453 105.581 56.453 C 103.121 57.604 102.464 60.556 100.004 61.541 C 97.541 62.527 95.079 62.855 92.782 64.004 C 85.234 67.941 77.029 69.581 69.153 72.206 C 68.17 72.534 67.347 72.863 66.365 73.028 C 62.096 73.848 59.637 76.474 58.323 80.576 C 53.895 93.046 49.298 105.516 44.87 117.986 C 44.213 119.463 43.393 121.106 44.376 122.417 C 45.524 124.06 47.167 122.583 48.644 122.255 L 60.294 118.809 C 64.888 117.332 69.482 117.003 74.241 116.512 C 78.179 116.183 81.789 117.661 85.563 118.643 C 85.729 118.809 86.221 119.3 86.221 119.463 C 86.055 120.12 85.729 120.777 85.4 120.941 C 82.775 121.597 80.313 122.583 78.179 124.552 C 77.524 125.209 76.048 125.537 74.899 125.537 C 69.319 125.865 64.397 128.488 59.146 129.965 C 53.072 131.771 47.002 133.739 40.603 135.053 C 39.455 135.216 38.963 136.201 38.797 137.021 C 36.666 143.749 34.695 150.477 32.892 157.204 C 31.578 161.964 30.43 166.72 29.281 171.316 C 29.118 172.137 28.79 172.794 28.79 173.613 C 28.133 177.059 29.119 178.045 32.398 177.221 C 39.62 175.581 46.019 172.464 52.09 168.525 C 59.8 163.441 68.005 159.337 76.376 155.726 C 79.984 154.087 83.595 154.249 87.204 154.907 C 88.352 155.235 88.517 156.218 87.698 157.203 C 84.578 160.32 81.299 163.44 78.508 166.885 C 73.257 173.448 66.695 178.535 59.639 182.967 C 58.653 183.624 57.177 183.95 56.685 184.935 C 53.731 189.857 48.481 190.515 43.724 192.154 C 40.932 193.14 37.816 193.96 34.862 194.617 C 33.057 194.948 31.252 194.948 29.612 195.111 Z " fill="rgb(255,255,255)"/><path d=" M 235.602 166.56 C 234.946 166.888 234.126 167.051 233.469 167.051 C 230.844 167.38 228.218 167.051 225.921 168.036 C 223.13 169.184 220.504 170.662 217.716 171.81 C 214.928 172.795 212.302 174.107 209.512 174.764 C 206.887 178.209 203.112 177.552 199.502 178.209 C 186.703 180.177 173.741 179.686 160.942 179.029 C 152.08 178.537 143.056 176.898 134.36 174.763 C 130.42 173.778 126.318 173.123 122.381 172.629 C 119.756 172.138 117.294 172.138 114.834 172.795 C 113.191 173.124 111.714 173.286 110.074 173.286 C 107.285 173.286 104.332 171.317 103.675 168.527 C 103.184 166.559 102.361 164.424 103.184 162.294 C 103.675 160.322 104.332 158.683 103.51 156.714 C 103.018 155.729 103.838 154.909 104.495 154.089 C 106.629 151.955 108.434 149.658 110.731 147.852 C 113.52 145.393 115.488 142.273 117.294 138.99 C 122.874 129.311 128.616 119.793 136.166 111.588 C 138.954 108.308 142.07 105.354 145.025 102.235 C 145.682 101.415 146.502 100.594 146.173 99.283 L 146.01 99.283 C 143.547 99.118 141.579 100.595 139.446 101.58 C 134.524 103.876 129.438 105.845 124.349 107.813 C 120.905 108.961 117.458 109.29 114.011 109.784 C 109.583 110.439 105.644 107.485 104.003 103.22 C 103.838 102.891 103.675 102.4 103.838 102.072 C 104.824 99.447 104.003 96.164 106.137 93.867 C 107.286 92.556 107.449 91.079 106.792 89.436 C 106.3 88.782 106.629 87.959 106.958 87.304 C 108.106 84.679 109.746 83.859 111.88 85.334 C 114.176 87.139 116.31 86.811 118.442 85.99 C 124.187 84.185 130.092 82.382 135.671 80.248 C 145.353 76.965 155.197 74.668 165.208 73.028 C 172.426 71.88 179.155 73.192 185.554 76.474 C 188.346 77.951 190.314 80.576 192.447 82.707 C 194.415 84.678 194.415 87.138 193.43 89.764 C 191.953 93.375 189.493 96.163 186.539 98.297 C 183.422 100.593 180.14 102.728 176.694 104.696 C 168.652 109.29 161.762 115.363 154.869 121.269 C 153.885 122.089 153.228 122.911 152.244 123.565 C 145.844 127.339 141.25 132.755 137.149 138.664 C 134.524 142.437 132.064 146.211 129.6 149.819 C 129.109 150.477 128.78 151.134 128.452 151.954 C 127.632 153.594 128.289 155.236 129.929 155.727 C 132.063 156.219 134.194 156.548 136.329 156.876 L 150.276 158.353 C 171.445 160.65 192.611 161.964 213.778 162.127 C 220.671 162.293 227.398 163.275 234.127 164.424 C 234.618 164.591 235.274 164.918 235.767 165.244 C 235.932 165.41 235.932 165.901 235.932 166.23 C 236.094 166.397 235.765 166.56 235.602 166.56 Z " fill="rgb(255,255,255)"/></g></g></svg>