<?xml version="1.0" encoding="utf-8"?>
<!-- Generator: Adobe Illustrator 16.0.0, SVG Export Plug-In . SVG Version: 6.00 Build 0)  -->
<!DOCTYPE svg PUBLIC "-//W3C//DTD SVG 1.1//EN" "http://www.w3.org/Graphics/SVG/1.1/DTD/svg11.dtd">
<svg version="1.1" id="Calque_1" xmlns="http://www.w3.org/2000/svg" xmlns:xlink="http://www.w3.org/1999/xlink" x="0px" y="0px"
	 width="576px" height="241.999px" viewBox="0 0 576 241.999" enable-background="new 0 0 576 241.999" xml:space="preserve">
<g>
	<path fill="#FFFFFF" d="M56.896,190.824c-7.385,0.491-13.293-2.625-18.707-7.057c-0.986-0.82-1.64-1.805-1.806-2.954
		c-0.491-3.609-0.656-7.382-2.788-10.665c-0.657-0.985,0-2.134,0.163-3.282c1.477-6.071,2.625-12.307,4.103-18.378
		c2.625-10.174,5.25-20.347,8.042-30.52c1.802-6.237,3.937-12.636,6.07-18.87l8.859-25.435c0.985-2.791,0.985-2.791-1.478-4.759
		c-0.819-0.658-1.802-1.312-1.802-2.297c0.163-2.297-0.822-3.94-1.971-5.908c-1.149-1.968,0.165-3.937,2.462-3.937
		c0.656,0,1.148,0.163,1.805,0.329c1.477,0.492,2.954-0.166,4.594-0.494c2.134-0.329,2.953-1.477,3.116-3.445v-1.805
		c0.494-4.103,1.148-4.923,5.25-5.251c3.94-0.329,7.877-0.656,10.996,2.626c1.477,1.477,3.445,1.477,5.414,0.82
		c5.414-1.474,10.994-2.952,16.41-4.266c2.625-0.656,5.414-1.148,8.039-1.805c6.565-1.64,13.127-0.654,19.692-0.329
		c1.968,0.166-8.152,1.314-8.314,3.282c-0.165,2.134,10.283,4.103,8.314,5.416c-0.166,0.164-0.329,0.326-0.494,0.326
		c-2.46,1.151-3.117,4.103-5.577,5.088c-2.463,0.986-4.925,1.314-7.222,2.463c-7.548,3.937-15.753,5.577-23.629,8.202
		c-0.983,0.328-1.806,0.657-2.788,0.822c-4.269,0.82-6.728,3.446-8.042,7.548c-4.428,12.47-9.025,24.94-13.453,37.41
		c-0.657,1.477-1.477,3.12-0.494,4.431c1.148,1.643,2.791,0.166,4.268-0.162l11.65-3.446c4.594-1.477,9.188-1.806,13.947-2.297
		c3.938-0.329,7.548,1.149,11.322,2.131c0.166,0.166,0.658,0.657,0.658,0.82c-0.166,0.657-0.492,1.314-0.821,1.478
		c-2.625,0.656-5.087,1.642-7.221,3.611c-0.655,0.657-2.131,0.985-3.28,0.985c-5.58,0.328-10.502,2.951-15.753,4.428
		c-6.074,1.806-12.144,3.774-18.543,5.088c-1.148,0.163-1.64,1.148-1.806,1.968c-2.131,6.728-4.102,13.456-5.905,20.183
		c-1.314,4.76-2.462,9.516-3.611,14.112c-0.163,0.821-0.491,1.478-0.491,2.297c-0.657,3.446,0.329,4.432,3.608,3.608
		c7.222-1.64,13.621-4.757,19.692-8.696c7.71-5.084,15.915-9.188,24.286-12.799c3.608-1.639,7.219-1.477,10.828-0.819
		c1.148,0.328,1.313,1.311,0.494,2.296c-3.12,3.117-6.399,6.237-9.19,9.682c-5.251,6.563-11.813,11.65-18.869,16.082
		c-0.986,0.657-2.462,0.983-2.954,1.968c-2.954,4.922-8.204,5.58-12.961,7.219c-2.792,0.986-5.908,1.806-8.862,2.463
		C60.341,190.661,58.536,190.661,56.896,190.824z"/>
	<path fill="#FFFFFF" d="M262.886,162.273c-0.656,0.328-1.476,0.491-2.133,0.491c-2.625,0.329-5.251,0-7.548,0.985
		c-2.791,1.148-5.417,2.626-8.205,3.774c-2.788,0.985-5.414,2.297-8.204,2.954c-2.625,3.445-6.4,2.788-10.01,3.445
		c-12.799,1.968-25.761,1.477-38.56,0.82c-8.862-0.492-17.886-2.131-26.582-4.266c-3.94-0.985-8.042-1.64-11.979-2.134
		c-2.625-0.491-5.087-0.491-7.547,0.166c-1.643,0.329-3.12,0.491-4.76,0.491c-2.789,0-5.742-1.969-6.399-4.759
		c-0.491-1.968-1.314-4.103-0.491-6.233c0.491-1.972,1.148-3.611,0.326-5.58c-0.492-0.985,0.328-1.805,0.985-2.625
		c2.134-2.134,3.939-4.431,6.236-6.237c2.789-2.459,4.757-5.579,6.563-8.862c5.58-9.679,11.322-19.197,18.872-27.402
		c2.788-3.28,5.904-6.234,8.859-9.353c0.657-0.82,1.477-1.641,1.148-2.952h-0.163c-2.463-0.165-4.431,1.312-6.564,2.297
		c-4.922,2.296-10.008,4.265-15.097,6.233c-3.444,1.148-6.891,1.477-10.338,1.971c-4.428,0.655-8.367-2.299-10.008-6.564
		c-0.165-0.329-0.328-0.82-0.165-1.148c0.986-2.625,0.165-5.908,2.299-8.205c1.149-1.311,1.312-2.788,0.655-4.431
		c-0.492-0.654-0.163-1.477,0.166-2.132c1.148-2.625,2.788-3.445,4.922-1.97c2.296,1.805,4.43,1.477,6.562,0.656
		c5.745-1.805,11.65-3.608,17.229-5.742c9.682-3.283,19.526-5.58,29.537-7.22c7.218-1.148,13.947,0.164,20.346,3.446
		c2.792,1.477,4.76,4.102,6.893,6.233c1.968,1.971,1.968,4.431,0.983,7.057c-1.477,3.611-3.937,6.399-6.891,8.533
		c-3.117,2.296-6.399,4.431-9.845,6.399c-8.042,4.594-14.932,10.667-21.825,16.573c-0.984,0.82-1.641,1.642-2.625,2.296
		c-6.4,3.774-10.994,9.19-15.095,15.099c-2.625,3.773-5.085,7.547-7.549,11.155c-0.491,0.658-0.82,1.315-1.148,2.135
		c-0.82,1.64-0.163,3.282,1.477,3.773c2.134,0.492,4.265,0.821,6.4,1.149l13.947,1.477c21.169,2.297,42.335,3.611,63.502,3.774
		c6.893,0.166,13.62,1.148,20.349,2.297c0.491,0.167,1.147,0.494,1.64,0.82c0.165,0.166,0.165,0.657,0.165,0.986
		C263.378,162.11,263.049,162.273,262.886,162.273z"/>
</g>
<g>
	<path fill="#FFFFFF" d="M256.909,104.666c0,1.117-0.852,2.036-2.033,2.036h-12.923v33.39c0,1.117-0.919,2.033-2.033,2.033
		c-1.116,0-2.035-0.916-2.035-2.033v-33.39h-12.659c-1.117,0-2.036-0.918-2.036-2.036c0-1.18,0.919-2.032,2.036-2.032h29.651
		C256.057,102.633,256.909,103.486,256.909,104.666z"/>
	<path fill="#FFFFFF" d="M296.621,138.713c0.789,0.853,0.722,2.099-0.131,2.887c-0.396,0.329-0.852,0.524-1.378,0.524
		c-0.524,0-1.116-0.195-1.509-0.654l-9.971-11.023H269.2v9.644c0,1.117-0.919,2.033-2.036,2.033c-1.114,0-2.033-0.916-2.033-2.033
		v-35.426c0-0.589,0.262-1.114,0.657-1.441c0.326-0.394,0.853-0.657,1.442-0.657h17.647c7.675,0,13.973,6.298,13.973,13.974
		c0,6.365-4.329,11.744-10.236,13.384L296.621,138.713z M269.2,126.38h15.678c5.445,0,9.906-4.394,9.906-9.839
		s-4.461-9.906-9.906-9.906H269.2V126.38z"/>
	<path fill="#FFFFFF" d="M345.975,141.665c-0.262,0.197-0.59,0.264-0.916,0.264c-0.724,0-1.444-0.395-1.772-1.049l-5.641-10.627
		h-22.765l-5.641,10.627c-0.525,0.982-1.706,1.311-2.756,0.785c-0.985-0.524-1.31-1.704-0.787-2.689l18.762-35.424
		c0.328-0.656,1.05-1.116,1.771-1.116c0.788,0,1.445,0.459,1.839,1.116l18.761,35.424
		C347.354,139.961,347.028,141.141,345.975,141.665z M335.478,126.185l-9.248-17.385l-9.186,17.385H335.478z"/>
	<path fill="#FFFFFF" d="M390.61,142.125c-0.591,0-1.117-0.195-1.509-0.59L358.4,109.652v30.439c0,1.117-0.919,2.033-2.036,2.033
		c-1.113,0-2.033-0.916-2.033-2.033v-35.426c0-0.852,0.528-1.573,1.249-1.901c0.784-0.329,1.64-0.131,2.229,0.459l30.769,31.817
		v-30.376c0-1.114,0.915-2.032,2.032-2.032c1.116,0,2.034,0.918,2.034,2.032v35.426c0,0.853-0.525,1.574-1.313,1.902
		C391.07,142.061,390.872,142.125,390.61,142.125z"/>
	<path fill="#FFFFFF" d="M437.147,130.055c0,3.213-1.246,6.231-3.542,8.528c-2.298,2.297-5.314,3.542-8.528,3.542h-9.249h-0.066
		c-0.068,0-0.068,0-0.131,0c-5.906,0-10.695-2.559-13.448-7.15c-0.59-0.918-0.265-2.163,0.722-2.753
		c0.918-0.593,2.163-0.265,2.753,0.722c2.036,3.344,5.513,5.117,9.974,5.117h0.131c0,0,0,0,0.066,0h0.064h9.185
		c2.164,0,4.133-0.855,5.641-2.364c1.51-1.509,2.363-3.475,2.363-5.574c0-4.396-3.607-8.005-8.004-8.005h-12.595
		c-5.447,0-9.906-4.396-9.906-9.906c0-2.626,0.981-5.117,2.887-7.019c1.834-1.838,4.329-2.887,7.02-2.887h11.742h0.196
		c3.805,0.131,6.887,1.901,8.726,4.919c0.59,0.919,0.262,2.166-0.723,2.756c-0.327,0.195-0.655,0.329-1.049,0.329
		c-0.657,0-1.312-0.396-1.706-0.986c-1.181-1.969-3.15-2.951-5.709-2.951h-11.478c-1.577,0-3.02,0.59-4.136,1.704
		c-1.113,1.117-1.704,2.559-1.704,4.135c0,3.216,2.623,5.838,5.84,5.838h12.595C431.703,118.049,437.083,123.495,437.147,130.055z"
		/>
	<path fill="#FFFFFF" d="M474.236,104.602c0,1.114-0.919,2.033-2.031,2.033h-21.782v19.746h12.988c1.117,0,2.035,0.919,2.035,2.036
		c0,1.113-0.918,2.032-2.035,2.032h-12.988v9.644c0,1.117-0.918,2.033-2.035,2.033c-1.114,0-2.032-0.916-2.032-2.033v-35.426
		c0-0.589,0.263-1.114,0.656-1.441c0.327-0.394,0.853-0.657,1.443-0.657h23.75C473.317,102.567,474.236,103.486,474.236,104.602z"/>
	<path fill="#FFFFFF" d="M510.664,140.091c0,1.117-0.919,2.033-2.033,2.033h-23.748c-0.067,0-0.067,0-0.067,0
		c-1.114,0-2.032-0.916-2.032-2.033v-35.426c0-0.589,0.262-1.114,0.656-1.441c0.327-0.394,0.853-0.657,1.443-0.657h23.748
		c1.114,0,2.033,0.919,2.033,2.035c0,1.114-0.919,2.033-2.033,2.033h-21.78v19.746h12.988c1.116,0,2.035,0.919,2.035,2.036
		c0,1.113-0.919,2.032-2.035,2.032h-12.988v7.612h21.78C509.745,138.06,510.664,138.976,510.664,140.091z"/>
	<path fill="#FFFFFF" d="M552.673,138.713c0.785,0.853,0.716,2.099-0.134,2.887c-0.39,0.329-0.849,0.524-1.378,0.524
		c-0.523,0-1.116-0.195-1.512-0.654l-9.967-11.023h-14.434v9.644c0,1.117-0.919,2.033-2.034,2.033c-1.117,0-2.036-0.916-2.036-2.033
		v-35.426c0-0.589,0.267-1.114,0.663-1.441c0.319-0.394,0.849-0.657,1.442-0.657h17.643c7.676,0,13.974,6.298,13.974,13.974
		c0,6.365-4.332,11.744-10.234,13.384L552.673,138.713z M525.249,126.38h15.678c5.443,0,9.908-4.394,9.908-9.839
		s-4.465-9.906-9.908-9.906h-15.678V126.38z"/>
</g>
</svg>
